<svg
  width="50"
  height="50"
  viewBox="0 0 200 200"
  fill="none"
  xmlns="http://www.w3.org/2000/svg"
>
  <g id="logo">
    <filter
      id="white-glow"
      x="-5000%"
      y="-5000%"
      width="10000%"
      height="10000%"
    >
      <feFlood
        result="flood"
        flood-color="rgb(229,255,236)"
        flood-opacity=".8"
      ></feFlood>
      <feComposite
        in="flood"
        result="mask"
        in2="SourceGraphic"
        operator="in"
      ></feComposite>
      <feMorphology
        in="mask"
        result="dilated"
        operator="dilate"
        radius="3"
      ></feMorphology>
      <feGaussianBlur
        in="dilated"
        result="blurred"
        stdDeviation="10"
      ></feGaussianBlur>
      <feMerge>
        <feMergeNode in="blurred"></feMergeNode>
        <feMergeNode in="SourceGraphic"></feMergeNode>
      </feMerge>
    </filter>
    <filter id="blue-glow" x="-5000%" y="-5000%" width="10000%" height="10000%">
      <feFlood
        result="flood"
        flood-color="rgb(106,255,246)"
        flood-opacity=".8"
      ></feFlood>
      <feComposite
        in="flood"
        result="mask"
        in2="SourceGraphic"
        operator="in"
      ></feComposite>
      <feMorphology
        in="mask"
        result="dilated"
        operator="dilate"
        radius="3"
      ></feMorphology>
      <feGaussianBlur
        in="dilated"
        result="blurred"
        stdDeviation="10"
      ></feGaussianBlur>
      <feMerge>
        <feMergeNode in="blurred"></feMergeNode>
        <feMergeNode in="SourceGraphic"></feMergeNode>
      </feMerge>
    </filter>
    <feFlood result="" flood-color="rgb(0, 255, 255)"></feFlood>
    <g id="monitor" fill="white" filter="url(#white-glow)">
      <path
        id="monitor_screen"
        d="M61 44.586L130.171 42L132.075 92.9133L62.9034 95.4993L61 44.586Z"
        fill="white"
        filter="url(#blue-glow)"
      />
      <path
        id="monitor_edges"
        d="M117.5 39.6C108.7 40.3 91.9 41.6 80.2 42.4C68.5 43.2 58.6 44.1 58.3 44.4C57.7 45 59.9 99.2 60.5 99.9C61.1 100.4 131.2 102.2 131.7 101.6C132.1 101.2 135.9 46.9 136 40.7C136 39.1 135.5 38.1 134.8 38.1C134.1 38.2 126.3 38.9 117.5 39.6ZM129.7 49.7C129.3 53.5 128.5 63.8 127.9 72.7L126.7 89H109.1C99.4 89 85.8 88.7 78.8 88.3L66.2 87.7L65.6 81.1C65.3 77.5 64.8 68.4 64.4 60.9L63.8 47.3L74.6 46.5C84 45.9 120.8 43.5 127.9 43.1C130.2 43 130.2 43.1 129.7 49.7Z"
        fill="black"
      />
      <path
        id="Vector_2"
        d="M66.1 52.7L66.2 56.5L67.1 53.3C67.8 50.9 68.7 50 70.8 49.7C73 49.4 72.7 49.3 69.8 49.1C66 49 66 49 66.1 52.7Z"
        fill="black"
      />
      <path
        id="Vector_3"
        d="M124.1 76.8C123.3 80.2 122.2 83.4 121.6 83.8C121 84.2 116.7 85 112 85.6L103.5 86.7L114.2 86.9L124.9 87L125.5 82.7C125.9 80.4 126 76.7 125.8 74.5C125.5 70.6 125.5 70.6 124.1 76.8Z"
        fill="black"
      />
      <path
        id="Vector_4"
        d="M86.5 103.8C86.2 104.6 86 106.2 86 107.5C86 112.3 85.1 113 78.9 113C73 113 72.3 113.4 73.8 115.8C75 117.6 120.1 117.1 120.8 115.2C121.1 114.3 119.4 114 114.7 114H108.1L107.5 108.6L106.8 103.1L96.9 102.8C89.4 102.6 86.9 102.8 86.5 103.8Z"
        fill="black"
      />
    </g>
    <g id="harddrive">
      <path
        id="Vector_5"
        d="M39.2185 120.742C47.0185 121.342 49.7185 122.142 49.7185 123.842C49.7185 124.242 48.6185 124.942 47.3185 125.242C42.8185 126.342 44.2185 130.442 53.4185 142.542C63.5185 155.842 61.8185 155.342 81.2185 150.542L94.2185 147.242L93.9185 143.842C93.6185 139.542 93.0185 138.942 81.7185 130.342C68.7185 120.442 69.3185 120.742 61.3185 122.442C54.9185 123.742 54.2185 123.742 50.0185 121.842C46.6185 120.342 43.6185 119.842 38.3185 120.042L31.2185 120.142L39.2185 120.742Z"
        fill="black"
      />
      <path
        id="Vector_6"
        d="M20.5185 122.442C12.7185 124.842 13.2185 129.542 21.8185 133.942C23.8185 134.942 26.9185 137.342 28.8185 139.242C32.8185 143.542 37.1185 144.742 39.7185 142.342C41.6185 140.642 41.5185 138.242 39.6185 139.342C39.1185 139.742 38.7185 139.342 38.7185 138.542C38.7185 136.742 34.3185 135.042 29.5185 135.042C25.3185 135.042 17.3185 130.942 16.3185 128.242C15.3185 125.742 16.9185 124.742 24.4185 122.742C28.7185 121.642 30.1185 120.942 28.2185 120.942C26.6185 120.942 23.1185 121.642 20.5185 122.442Z"
        fill="black"
      />
      <circle id="ellipse1" cx="82.5" cy="146.5" r="1.5" fill="red" />
      <circle id="ellipse3" cx="86.5" cy="145.5" r="1.5" fill="yellow" />
      <circle id="ellipse2" cx="90.5" cy="144.5" r="1.5" fill="green" />
    </g>
    <g id="ch04937__container">
      <path
        id="ch04937"
        d="M108.017 133.5C108.017 143.1 108.317 145 109.517 145C110.717 145 111.017 143.5 111.017 137.4C111.017 130.8 111.217 129.9 112.817 130.2C114.217 130.5 114.617 131.8 114.817 137.8C115.017 141.7 115.517 145 116.117 145C116.717 145 117.017 141.8 116.817 136.7L116.517 128.5H113.817C111.317 128.6 111.017 128.2 111.017 125.3C111.017 123 110.517 122 109.517 122C108.317 122 108.017 123.9 108.017 133.5Z"
        fill="white"
      />
      <path
        id="ch04937"
        d="M122.217 125.2C120.317 127.1 120.617 141.5 122.617 143.4C124.717 145.5 126.617 145.4 129.017 143C130.617 141.4 131.017 139.7 131.017 135.1C131.017 126.8 129.817 124 126.217 124C124.717 124 122.917 124.5 122.217 125.2ZM127.517 134.5C127.517 140.9 127.217 142.5 126.017 142.5C124.817 142.5 124.417 140.8 124.217 134.2C123.917 126.6 124.117 125.9 125.717 126.2C127.317 126.5 127.517 127.6 127.517 134.5Z"
        fill="white"
      />
      <path
        id="ch04937"
        d="M136.717 131.2C135.217 135.2 134.017 139.1 134.017 139.7C134.017 140.5 135.417 141 137.517 141C140.317 141 141.017 141.4 141.017 143C141.017 144.1 141.517 145 142.017 145C142.617 145 143.017 144.1 143.017 143.1C143.017 142 143.617 140.9 144.317 140.6C145.317 140.1 145.317 139.9 144.317 139.4C143.417 139 143.017 136.4 143.017 131.4C143.017 125 142.817 124 141.217 124C140.017 124 138.717 126 136.717 131.2ZM141.017 132.5C141.017 136.6 140.617 138.2 139.517 138.7C138.617 139 137.617 139 137.317 138.6C136.617 138 139.717 127 140.617 127C140.817 127 141.017 129.5 141.017 132.5Z"
        fill="white"
      />
      <path
        id="ch04937"
        d="M148.017 125.9C145.417 130.9 148.117 137.7 152.217 136.4C153.917 135.9 154.117 136.2 153.817 139.1C153.417 142.9 151.117 144.2 150.317 141.1C149.617 138.2 148.017 138.4 148.017 141.4C148.017 145 152.617 146.3 155.417 143.4C157.417 141.5 157.717 127.1 155.817 125.2C153.917 123.3 149.217 123.7 148.017 125.9ZM153.817 130.2C153.617 133.2 153.017 134.5 152.017 134.5C151.017 134.5 150.417 133.2 150.217 130.2C149.917 126.5 150.117 126 152.017 126C153.917 126 154.117 126.5 153.817 130.2Z"
        fill="white"
      />
      <path
        id="ch04937"
        d="M161.017 126C159.917 128.1 160.417 130 162.117 130C162.617 130 163.017 129.1 163.017 128C163.017 126.7 163.717 126 165.017 126C166.617 126 167.017 126.7 167.017 129C167.017 130.8 166.417 132.3 165.517 132.6C163.517 133.4 163.617 135 165.617 135C166.817 135 167.017 135.9 166.817 138.7C166.517 143 163.717 144.1 163.217 140.2C162.817 137.9 161.617 137.3 160.517 139C158.417 142.5 163.917 146.2 167.917 144C170.217 142.8 170.917 137.3 169.017 135.4C168.417 134.8 168.417 133.3 169.217 131.2C170.817 127 169.417 124.6 165.217 124.2C162.917 124 161.817 124.4 161.017 126Z"
        fill="white"
      />
      <path
        id="ch04937"
        d="M173.017 124.9C173.017 125.5 174.317 126 175.917 126.2L178.917 126.5L175.917 135.5C172.517 146.1 172.717 145 174.417 145C175.717 145 177.217 141 181.617 125.7C182.117 124.3 181.417 124 177.617 124C175.117 124 173.017 124.4 173.017 124.9Z"
        fill="white"
      />
      <path
        id="ch04937"
        d="M98.1166 129.9C96.4166 133 96.7166 141.6 98.6166 143.4C99.4166 144.3 100.517 145 101.017 145C103.217 145 105.017 143.6 105.017 141.9C105.017 139.6 103.417 139.4 102.617 141.6C101.417 144.7 100.017 141.7 100.017 135.9C100.017 131.3 100.317 130 101.517 130C102.317 130 103.017 130.7 103.017 131.5C103.017 132.3 103.517 133 104.117 133C104.717 133 105.017 132 104.817 130.7C104.417 127.7 99.6166 127 98.1166 129.9Z"
        fill="white"
      />
    </g>
  </g>
</svg>
